<?xml version="1.0" encoding="UTF-8"?>
<!DOCTYPE svg PUBLIC "-//W3C//DTD SVG 1.1//EN" "http://www.w3.org/Graphics/SVG/1.1/DTD/svg11.dtd">
<!-- Creator: CorelDRAW X8 -->
<svg xmlns="http://www.w3.org/2000/svg" xml:space="preserve" width="130mm" height="130mm" version="1.1" style="shape-rendering:geometricPrecision; text-rendering:geometricPrecision; image-rendering:optimizeQuality; fill-rule:evenodd; clip-rule:evenodd"
viewBox="0 0 13000 13000"
 xmlns:xlink="http://www.w3.org/1999/xlink">
 <defs>
  <style type="text/css">
   <![CDATA[
    .fil0 {fill:#E6E6E6}
    .fil1 {fill:#E6E6E6;fill-rule:nonzero}
   ]]>
  </style>
 </defs>
 <g id="Слой_x0020_1">
  <metadata id="CorelCorpID_0Corel-Layer"/>
  <g id="_371717736">
   <path class="fil0" d="M3113 3326c12,-60 8,-22 43,-67 21,-28 30,-39 45,-71 37,-75 54,-40 96,-99 47,-67 156,-185 225,-222 -11,119 -111,171 -163,258 -40,67 -170,170 -246,201zm5511 7993c12,-2 7,23 14,11 30,24 15,38 108,-5 38,-18 89,-47 112,-78 -29,-8 -76,36 -104,42 -2,1 -6,2 -8,2 -3,0 -6,0 -9,0 -26,0 -11,2 -27,-7 21,-76 61,-2 64,-131 -52,-2 -235,80 -258,98 -38,29 -34,39 -30,97 -52,-5 -83,-14 -83,46 1,98 95,40 108,22l22 -47c9,-10 68,-38 91,-50zm544 -8695l-1 -46c39,-6 52,-18 84,-33 2,0 6,-2 8,-4 -5,-72 -35,-44 -39,-83l37 27 160 116c67,34 30,11 69,67 23,33 56,39 139,138 40,47 21,42 46,92 25,50 34,21 67,68 97,140 45,155 91,220 40,56 86,96 121,154 35,59 50,70 95,117 55,58 32,163 155,205 -34,-200 -24,-16 -29,-200 53,20 16,7 46,23l-5 -32c0,-2 1,-6 1,-8l-20 -44c16,-44 38,-21 5,-83 -36,-68 -3,-52 -19,-88l-36 -88c-4,-12 -30,-92 -36,-103 -74,-2 10,37 -79,4 -1,5 -1,38 -2,40 -12,41 7,12 -22,42 -20,-41 30,21 -2,-7l-110 -108c-2,-1 -4,-4 -6,-5l-12 -12c-61,-56 -21,-50 -91,-96 -88,-58 -111,-109 -141,-133 -1,-2 -20,-14 -20,-14 -51,-40 -24,-26 -23,-95 91,-1 79,30 116,16 -29,-44 -54,-39 -72,-86 39,-16 66,-13 103,8l-223 -164c-26,-26 -23,-26 -14,-36 61,-39 57,14 119,8 -10,-13 -26,-28 -39,-37l-203 -167c-13,-12 -12,-11 -27,-21 -93,-62 -2,-108 -118,-129 -37,-33 -62,-61 -111,-89 -60,-34 -81,-38 -140,-77 -126,-85 -808,-416 -947,-465 -116,-42 -128,-61 -245,-74 -107,-11 -2,-41 -218,-115 -53,-18 -103,-30 -163,-42 -99,-18 -224,-76 -329,-99l-173 -42c-258,-23 -970,-83 -1223,-30 -62,13 -125,4 -198,21 -65,15 -122,28 -183,41 -228,49 -521,12 -745,130 -114,59 -292,62 -415,119 -95,44 -239,52 -295,76 -3,1 -6,3 -8,4 -2,1 -33,25 -34,25 -71,61 -31,50 -121,85 -44,17 -52,5 -95,23 -38,16 -36,25 -69,37 -62,21 -29,-6 -76,38 -58,54 -141,71 -201,122 -21,18 -31,38 -52,50 -47,28 -90,11 -158,66 -102,83 -104,116 -244,193 -102,56 -91,86 -158,153 -48,48 -106,76 -144,132 -37,53 -58,30 -90,72 -27,33 -13,40 -42,73 -28,31 -83,59 -121,87 -96,71 -41,45 -94,124 -17,26 -83,80 -111,108 -52,52 -104,114 -141,179 -29,51 -25,23 -48,57 -20,31 -27,65 -78,139 -125,179 -79,134 -154,281l-86 121c-30,35 -60,89 -80,139 -23,56 -29,114 -56,159 -29,49 -58,69 -81,135l-61 146c-11,43 -3,44 -18,85l-30 84c-73,146 -131,302 -180,458l-39 181c-18,64 -36,100 -44,168 -5,49 -15,140 -26,190 -42,206 -45,469 -70,574 -39,163 -12,92 18,171l-41 20c-2,147 24,175 0,242 -33,93 168,228 153,283 -29,102 -5,46 -5,121 1,43 -22,76 4,129l51 100c17,18 55,14 9,45l-33 15 38 242c43,115 -137,119 -112,212l35 101c29,54 5,-19 22,31 -21,57 -3,89 10,147l18 99c8,22 5,12 13,38 30,108 154,546 218,614 37,40 10,-14 30,61 11,42 29,91 47,140 25,70 71,188 117,256 58,86 93,211 157,305 21,31 14,27 31,62 21,45 51,63 76,109 80,148 111,146 111,237 40,15 85,89 204,134 11,-3 21,6 44,14 -4,-20 -13,-44 -4,-57 20,26 17,21 29,46l35 48c66,57 29,37 67,106 190,224 651,665 864,816 69,48 -40,-87 193,91l273 23c3,-1 3,-5 7,-6 22,-6 19,-22 35,-29 41,-17 90,38 136,57 64,26 119,79 186,101 131,42 170,79 289,121 50,18 48,40 77,71 101,-2 105,149 177,186 46,24 12,16 43,38 39,28 79,47 110,84 33,40 130,127 179,143 87,27 153,35 238,70l22 -53c218,-17 266,67 450,69l40 -66 94 -4c8,-5 -2,-27 42,2 35,23 15,20 43,58 19,26 -2,15 35,29l38 -65c126,11 83,126 227,119 20,-33 4,-29 34,-63 27,-13 59,2 86,-8 28,-11 8,-19 51,-17 59,4 49,56 71,98 74,3 85,-13 144,-24 58,-10 119,-7 178,-9l20 -55c1,-1 1,-5 2,-8 45,-11 85,-44 128,-53 49,-9 124,-4 181,-12 48,-7 106,-19 158,-30 54,-11 80,-37 139,-41 370,-21 305,-2 665,-85 97,-22 24,-47 127,-54 103,-8 166,-76 260,-116 64,-27 94,-20 149,-39 92,-33 165,-79 250,-119 73,-35 20,1 113,-73 22,-19 35,-17 38,-56 5,-83 -5,6 -23,-67 358,-92 23,-36 -78,-109 0,-58 200,-133 257,-169l191 -153c37,-9 47,64 151,-15 70,-53 127,-60 135,-68l18 -48c19,-50 177,-197 218,-249 118,18 73,41 163,-47 39,-38 81,-104 134,-122 4,72 -21,66 -65,120 -182,145 -97,127 50,24 12,107 -315,421 -622,576 -65,47 -118,61 -89,151 5,15 8,0 10,21l-126 126c-33,29 -33,17 -35,63 583,-233 1078,-866 1091,-886 46,-151 48,-38 126,-51 52,-88 152,-309 187,-390 35,-79 39,-49 101,-92 -3,-99 -48,-18 8,-144 39,-89 -20,-16 60,-79 62,-49 4,-86 70,-169 18,-23 103,-171 112,-206 117,-34 -24,-212 104,-414 14,-27 169,-456 199,-478 377,-524 -255,752 265,81 24,-35 62,-151 74,-193 41,-149 182,-119 193,-390 -19,-48 -104,-88 -123,-161 -57,-221 -23,-123 -158,-284 -29,-35 -54,-45 -81,-68 -35,10 2,4 -40,28 -18,-5 -235,-106 -236,-110 -19,-71 -2,-69 -77,-88 -123,-30 -305,-143 -415,-93 -53,25 -12,-10 -51,33 -153,171 -121,-27 -295,20 -203,54 -220,0 -274,-21 -29,69 -106,28 -90,173 61,13 133,-15 74,191 -12,41 -28,72 -37,111 -27,110 -85,224 -109,338 -38,244 -446,1126 -659,1405 -42,56 -80,124 -123,175 -42,48 -84,106 -135,163 -55,60 -90,92 -152,147 -36,32 -33,51 -70,79 -27,20 -22,9 -47,35 -94,95 -44,35 -133,98 -85,60 -171,149 -268,193 -41,18 -68,26 -104,46 -123,67 -198,74 -289,172l-84 -11 -21 55c-67,-1 -12,-39 -154,14 -117,42 -16,27 -168,46 -88,10 -344,99 -403,94 -65,-6 -91,12 -158,26 -45,9 -30,26 -69,25 -16,0 -18,-18 -81,-15 -667,34 -1080,-12 -1695,-240 -49,-18 -127,-30 -160,-43 -43,-18 -3,-16 -62,-43 -26,-12 -48,-17 -76,-29 -175,-80 -369,-189 -531,-291 -44,-27 -82,-60 -123,-83 -27,-16 -58,-24 -70,-34 -35,-28 -53,-75 -166,-143 -34,-21 -33,-12 -64,-39 -66,-58 -108,-79 -157,-153 -14,-23 -80,-81 -105,-104 -37,-34 -75,-53 -107,-99 -48,-67 -51,-52 -107,-101l-343 -489c-24,-48 -50,-75 -79,-127 -14,-24 -22,-47 -35,-69l-233 -500c-64,-155 -119,-304 -159,-467 -44,-180 -151,-290 -174,-475 -17,-130 -62,-218 -76,-348 -5,-45 3,-38 -1,-81 -4,-47 -16,-40 -24,-82l-12 -528c2,-51 27,-119 32,-174 8,-96 -38,-73 14,-165 15,-29 1,-21 2,-76 0,-54 15,-133 36,-172 26,-49 109,-79 134,-123 35,-60 11,-92 57,-205 42,-107 55,-200 97,-313 38,-102 77,-184 112,-298 10,-34 19,-36 34,-69 17,-34 13,-44 27,-75 27,-60 57,-68 84,-123l53 -151c25,-120 5,-78 85,-122 -1,-113 13,-86 64,-153l105 -160c58,-101 51,-45 125,-151 85,-120 417,-359 556,-446 49,-30 88,-50 142,-80l197 -125c20,-12 45,-39 67,-49 39,-17 62,-8 105,-12 56,-5 36,-10 75,-41 47,-38 85,-27 147,-72 41,-29 102,-49 155,-64l575 -99c105,-8 54,-44 377,-48 71,-1 36,-9 83,-19 62,-12 262,-21 305,-8 98,28 32,30 174,43 77,8 97,38 175,41 127,4 284,-12 406,31l326 109c177,70 161,89 289,157l146 70c92,44 167,124 271,179l5 -14c11,-24 15,-16 55,-20 28,-2 -1,10 17,-4 -54,-42 -64,-36 -121,-70 -41,-24 -99,-39 -95,-96 75,-62 161,73 312,75 -17,-37 -48,-60 -80,-87 -69,-60 -66,-13 -134,-36 -87,-28 -142,-102 -211,-116 -38,-53 -43,-19 -92,-85 -34,-45 -57,-41 -109,-65 -43,-21 -19,-8 -60,-19 -40,-11 -130,-63 -119,-115 141,10 408,205 533,227 -17,-26 -37,-37 -66,-52 619,149 1120,529 1790,1170 -15,-49 -46,-60 -76,-99 -26,-31 -17,-22 -44,-47 -36,-33 -28,-3 -29,-62 33,19 118,87 144,117l130 148c20,31 26,52 47,79l54 87c19,37 33,53 51,86 18,34 22,58 44,95 22,-21 5,12 15,-23 11,-36 0,-22 -2,-25 12,7 54,18 81,78 14,31 35,90 33,109 -1,2 -2,5 -2,7 -14,85 77,129 82,134 17,14 23,29 23,54 -32,-34 -38,-34 -67,-42 2,122 30,12 91,115 83,138 2,91 16,152 21,42 52,36 84,72 15,45 -11,73 50,-9 45,62 132,219 154,290 28,91 131,210 130,301 -26,16 17,-1 -60,-14 -5,82 11,82 57,121 72,62 69,138 112,233 21,44 49,75 65,111 4,24 -59,72 53,204 77,91 32,163 103,183 39,-82 -59,-76 -34,-170 96,-13 35,69 109,80 90,13 44,-88 25,-148 -12,-39 19,-106 -33,-118 -10,11 -17,39 -26,94 -26,8 -21,12 -62,-104 2,-2 3,-5 7,-6 4,-1 5,-5 6,-6 2,-1 5,-4 7,-5 43,-35 -11,-24 53,-23 18,10 14,3 40,12l-16 -129 24 -7c-7,-52 -22,-54 -24,-96 5,14 26,33 37,51 8,13 15,30 21,39l33 32c-3,-111 -107,-204 -128,-316 48,10 21,9 59,22 -24,-69 -42,-41 -64,-83 -20,-38 -4,-60 -39,-121 -45,-78 -111,-100 -123,-195 97,27 141,199 197,258 42,44 34,48 64,88 25,-49 -59,-129 -81,-152 -44,-47 -62,-114 -66,-192l18 -10c2,-1 7,-3 9,-4l37 -11c-4,-34 -14,-43 -31,-65 -62,-75 -30,-92 -145,-202 -99,-97 -158,-216 -221,-335 -15,-27 -30,-41 -45,-68 -38,-65 -8,-100 -119,-229 -42,-49 -61,-72 -87,-143 -27,-77 13,-25 -52,-61 -13,-122 -20,-61 -58,-130 -27,-48 10,-14 -42,-53 -16,-12 -34,-27 -52,-44 8,-30 28,-9 43,-52 -87,-53 -87,-152 -170,-233l-102 -100c-22,-27 -23,-32 -48,-50 3,-9 24,-36 12,-66 -3,-1 -12,-2 -11,-2 2,0 -8,-2 -10,-2l-48 5 4 -61c-15,-58 -26,-36 -52,-54 -30,-22 -18,-31 -40,-62l-274 -256zm-6744 1647c-19,-23 -14,-35 -5,-83 30,-150 -5,-66 4,-134 6,-50 105,-275 135,-321 89,-135 25,-42 89,-106 53,-53 50,-120 59,-170 4,-24 1,-5 3,-32 3,-56 -12,-12 20,-57 77,-112 40,-43 93,-97 -14,-36 -27,-16 -36,-42 7,-6 31,-24 31,-24l26 15c-2,0 5,4 8,4 13,-34 13,-179 204,-199 -13,-79 7,-65 78,-116 33,-24 87,-78 135,-83 -90,210 -8,16 -126,217 -43,74 -79,126 -137,186 18,-86 97,-122 120,-210 -106,5 -31,14 -99,80l-196 297c33,-19 20,-17 62,-28 -2,18 -324,555 -186,371 30,-40 273,-388 134,-185l-115 193c-32,38 -39,38 -64,86 -1,-33 16,-51 -81,-56 -16,40 -30,91 -50,121 18,50 9,-3 30,57 -48,93 -102,196 -136,316z"/>
   <path class="fil1" d="M4192 5565c0,77 -63,177 -189,301 -117,106 -234,211 -349,315 -128,117 -193,203 -193,257 0,52 0,100 0,145 0,45 0,88 0,129 0,99 -10,188 -31,267 -20,79 -70,199 -148,362l-140 0 -207 -1925 0 -514 142 0c99,122 176,269 231,440 55,171 83,346 83,524 26,18 49,39 70,61 87,-117 171,-213 252,-287 141,-131 265,-196 373,-196 50,0 82,16 98,50 5,12 8,35 8,71zm597 1988c-8,0 -19,4 -34,13 -14,9 -33,14 -57,14 -28,0 -119,-107 -271,-322 -112,-157 -247,-359 -404,-605 -118,-183 -189,-294 -212,-335l31 -121 106 0c294,345 487,580 581,706 66,88 111,172 136,252 25,80 66,172 124,276l0 122zm1818 -1075c0,332 -82,585 -244,761 -170,185 -428,278 -773,278 -116,9 -182,14 -201,14 -18,0 -40,-9 -66,-27 -61,-43 -119,-86 -177,-129l0 -139c13,2 28,4 45,5 17,1 41,2 73,2 335,0 591,-74 769,-220 168,-138 252,-330 252,-578 0,-163 -70,-335 -208,-518 -155,-203 -317,-304 -487,-304 -34,0 -105,55 -212,165 -34,37 -85,92 -154,166 0,16 17,50 50,103 32,53 84,119 155,198l0 105 -205 0c-73,-99 -125,-184 -157,-255 -31,-71 -47,-133 -47,-185 0,-153 42,-283 126,-389 102,-128 250,-192 444,-192 343,0 610,148 801,446 144,226 216,457 216,693zm1040 1106c-36,9 -72,18 -106,27 -152,0 -283,-165 -392,-497 -126,-379 -189,-887 -189,-1525 0,-41 16,-187 47,-438 32,-251 62,-414 90,-489l106 0c55,115 89,257 103,426 41,517 62,778 62,785 53,464 146,1035 279,1711zm1838 -1106c0,332 -81,585 -244,761 -170,185 -428,278 -773,278 -115,9 -182,14 -200,14 -19,0 -41,-9 -67,-27 -60,-43 -119,-86 -177,-129l0 -139c13,2 28,4 45,5 17,1 42,2 73,2 335,0 592,-74 770,-220 167,-138 251,-330 251,-578 0,-163 -70,-335 -208,-518 -155,-203 -317,-304 -487,-304 -34,0 -105,55 -212,165 -34,37 -85,92 -153,166 0,16 16,50 49,103 32,53 84,119 155,198l0 105 -204 0c-74,-99 -126,-184 -157,-255 -32,-71 -48,-133 -48,-185 0,-153 42,-283 126,-389 102,-128 250,-192 444,-192 343,0 610,148 801,446 144,226 216,457 216,693z"/>
  </g>
 </g>
</svg>
