<?xml version="1.0" encoding="UTF-8"?>
<!DOCTYPE svg PUBLIC "-//W3C//DTD SVG 1.1//EN" "http://www.w3.org/Graphics/SVG/1.1/DTD/svg11.dtd">
<!-- Creator: CorelDRAW X8 -->
<svg xmlns="http://www.w3.org/2000/svg" xml:space="preserve" width="130mm" height="130mm" version="1.1" style="shape-rendering:geometricPrecision; text-rendering:geometricPrecision; image-rendering:optimizeQuality; fill-rule:evenodd; clip-rule:evenodd"
viewBox="0 0 13000 13000"
 xmlns:xlink="http://www.w3.org/1999/xlink">
 <defs>
  <style type="text/css">
   <![CDATA[
    .fil0 {fill:#1A1A1A}
   ]]>
  </style>
 </defs>
 <g id="Слой_x0020_1">
  <metadata id="CorelCorpID_0Corel-Layer"/>
  <g id="_221881424">
   <g>
    <path class="fil0" d="M891 6233c-274,108 -307,46 -101,-186 632,-485 1159,-744 1582,-775 299,-34 671,18 1117,155 961,392 1780,912 2454,1560 236,274 266,377 90,309 -285,-253 -564,-470 -837,-653 -498,-387 -1095,-719 -1792,-997 -435,-157 -924,-158 -1466,-5 -278,85 -627,282 -1047,592z"/>
    <path class="fil0" d="M310 6752c-37,-117 -107,-80 -209,110 -171,487 -109,922 187,1304 330,538 1002,1142 2016,1811 969,589 1829,783 2581,582 754,-260 1345,-821 1666,-1716 213,-684 61,-1068 -339,-1159 -722,-140 -2817,1417 -2277,2130 93,132 192,211 298,240 224,73 -450,-459 366,-1234 462,-466 935,-763 1418,-891 917,-210 98,2781 -2181,2412 -1075,-186 -2166,-916 -3275,-2189 -316,-344 -400,-811 -251,-1400z"/>
   </g>
   <g>
    <path class="fil0" d="M4006 5262c-9,-94 10,-187 56,-279 349,-755 828,-1208 1436,-1358 104,-116 213,-175 326,-177 284,-574 1184,-928 2699,-1062 991,-68 1555,22 1689,271 -1873,-153 -3222,106 -4046,777 -538,683 -504,1156 102,1419 1641,462 2907,477 3797,45 1050,-532 1373,-1016 971,-1452 -403,-261 -934,-331 -1591,-210 -464,178 -554,395 -270,652 205,105 361,132 468,80 -317,337 -780,373 -1391,108 -314,-143 -150,-433 493,-870 723,-452 1534,-445 2432,19 423,319 422,688 -1,1107 -185,102 -137,204 146,306 370,235 597,553 680,954 -314,-545 -668,-863 -1061,-954 -100,-9 -100,86 -2,283 -187,-158 -349,-146 -484,34 -312,228 -733,383 -1263,466 -124,25 -143,107 -56,244 534,720 715,1423 544,2110 -71,-970 -312,-1673 -724,-2111 -79,28 -125,95 -137,201 -77,-346 -251,-480 -521,-403 -505,16 -1011,-74 -1517,-271 -112,-45 -196,14 -250,178 -93,147 -190,195 -292,142 -188,0 -314,360 -376,1080 -129,-498 -45,-922 249,-1272 160,-113 143,-220 -53,-322 -452,-135 -690,-427 -716,-877 -28,-97 -130,-60 -306,111 -396,312 -653,617 -773,917 -88,286 -174,324 -258,114z"/>
    <path class="fil0" d="M8856 8668c-447,100 -1144,59 -2093,-124 819,305 1545,403 2177,293 246,67 416,49 509,-57 909,-130 1534,-396 1877,-798 189,-176 362,-282 521,-317 265,-133 440,-375 527,-725 67,-123 151,-221 253,-295 421,-543 479,-1242 173,-2096 -246,-377 -580,-691 -1001,-942 -115,-7 -124,60 -27,202 669,557 986,1133 953,1728 0,426 -93,762 -279,1010 -142,192 -243,163 -301,-89 -43,-222 -62,-404 -56,-544 -148,157 -130,442 56,856 34,194 -56,409 -268,645 -267,112 -471,264 -612,458 -36,65 -105,78 -209,41 3,129 -111,261 -342,394 -244,125 -596,234 -1056,328 -175,67 -224,-12 -146,-237 -179,268 -336,336 -470,203 -75,-95 -36,-228 115,-399 -263,54 -364,209 -301,465z"/>
   </g>
  </g>
 </g>
</svg>
